# xmcd
#
# Track frame offsets: 
#        150
#        14907
#        29272
#        41292
#        56067
#        68865
#        84272
#        98177
#        109707
#        124130
#        136400
#        150965
#        164627
#        179465
#        193442
#        207530
#        220234
#        233800
#        247127
#        261175
#
# Disc length: 3648 seconds
#
# Revision: 1
# Processed by: cddbd v1.5.2PL0 Copyright (c) Steve Scherf et al.
# Submitted via: ExactAudioCopyFreeDBPlugin 1.0
#
DISCID=2a0e3e14
DTITLE=Various Artist - Arrasta Pé 
DYEAR=1900
DGENRE=Country
TTITLE0=Banda Aquarius - Olhinhos de Fogueira
TTITLE1=Capital do Sol - Valeu a Vaca
TTITLE2=Mastruz com leite - Quer Ver Eu Querer Me Dê
TTITLE3=João Bandeira - Aqui é o Seu Lugar
TTITLE4=Mastruz com Leite - Passeando Pelo Sertão
TTITLE5=Banda Aquarius - Festa do Balão
TTITLE6=Cavalo de Pau - Vaqueiro Tem Que Dar Duro
TTITLE7=Mastruz com Leite - Leito da Saudade
TTITLE8=Banda Aquarius - Festa do Meu Sertão
TTITLE9=Balaio de Gatos - Meu Coração Sem Você
TTITLE10=Cavalo de Pau - Só o Filé
TTITLE11=Luiz Fidelis - Ô Peste
TTITLE12=Capital do Sol - Andorinha e Gavião
TTITLE13=Rita de Cássia and Redondo - Solte o Coração
TTITLE14=Banda Aquarius - Deixe a Poeira Subir
TTITLE15=Waldonys - É Que Nem Brasa
TTITLE16=Cavalo de Pau - Você É, Foi e Será
TTITLE17=Balaio de Gatos - Quero Ser Seu Gato
TTITLE18=Marinês - Amor Demais
TTITLE19=Mastruz com Leite - Rala Coxa
EXTD=
EXTT0=
EXTT1=
EXTT2=
EXTT3=
EXTT4=
EXTT5=
EXTT6=
EXTT7=
EXTT8=
EXTT9=
EXTT10=
EXTT11=
EXTT12=
EXTT13=
EXTT14=
EXTT15=
EXTT16=
EXTT17=
EXTT18=
EXTT19=
PLAYORDER=
